<!-- Animica Icon Sprite (compiled)
     Note: This is a prebuilt sprite for convenience. Prefer running
     `node contrib/icons/scripts/make_sprite.mjs` to regenerate.
     All symbols use `currentColor` for theming. -->
<svg xmlns="http://www.w3.org/2000/svg" style="display:none">

  <!-- add -->
  <symbol id="add" viewBox="0 0 24 24" role="img" aria-label="Add">
    <g fill="none" stroke="currentColor" stroke-width="2" stroke-linecap="round" stroke-linejoin="round">
      <line x1="12" y1="5" x2="12" y2="19"/>
      <line x1="5" y1="12" x2="19" y2="12"/>
    </g>
  </symbol>

  <!-- arrow-right -->
  <symbol id="arrow-right" viewBox="0 0 24 24" role="img" aria-label="Arrow Right">
    <g fill="none" stroke="currentColor" stroke-width="2" stroke-linecap="round" stroke-linejoin="round">
      <path d="M5 12h12"/>
      <path d="M13 6l6 6-6 6"/>
    </g>
  </symbol>

  <!-- check -->
  <symbol id="check" viewBox="0 0 24 24" role="img" aria-label="Check">
    <g fill="none" stroke="currentColor" stroke-width="2" stroke-linecap="round" stroke-linejoin="round">
      <path d="M20 6L9 17l-5-5"/>
    </g>
  </symbol>

  <!-- close -->
  <symbol id="close" viewBox="0 0 24 24" role="img" aria-label="Close">
    <g fill="none" stroke="currentColor" stroke-width="2" stroke-linecap="round" stroke-linejoin="round">
      <line x1="6" y1="6" x2="18" y2="18"/>
      <line x1="18" y1="6" x2="6" y2="18"/>
    </g>
  </symbol>

  <!-- copy -->
  <symbol id="copy" viewBox="0 0 24 24" role="img" aria-label="Copy">
    <g fill="none" stroke="currentColor" stroke-width="2" stroke-linecap="round" stroke-linejoin="round">
      <rect x="8" y="8" width="11" height="13" rx="2"/>
      <rect x="5" y="3" width="11" height="13" rx="2"/>
    </g>
  </symbol>

  <!-- download -->
  <symbol id="download" viewBox="0 0 24 24" role="img" aria-label="Download">
    <g fill="none" stroke="currentColor" stroke-width="2" stroke-linecap="round" stroke-linejoin="round">
      <path d="M12 3v10"/>
      <path d="M7 10l5 5 5-5"/>
      <path d="M5 21h14"/>
    </g>
  </symbol>

  <!-- external-link -->
  <symbol id="external-link" viewBox="0 0 24 24" role="img" aria-label="External Link">
    <g fill="none" stroke="currentColor" stroke-width="2" stroke-linecap="round" stroke-linejoin="round">
      <rect x="4" y="8" width="12" height="12" rx="2"/>
      <path d="M14 4h6v6"/>
      <path d="M10 14L20 4"/>
    </g>
  </symbol>

  <!-- info -->
  <symbol id="info" viewBox="0 0 24 24" role="img" aria-label="Info">
    <g fill="none" stroke="currentColor" stroke-width="2" stroke-linecap="round" stroke-linejoin="round">
      <circle cx="12" cy="12" r="9"/>
      <path d="M12 10v6"/>
    </g>
    <circle cx="12" cy="8" r="1" fill="currentColor"/>
  </symbol>

  <!-- warning -->
  <symbol id="warning" viewBox="0 0 24 24" role="img" aria-label="Warning">
    <g fill="none" stroke="currentColor" stroke-width="2" stroke-linejoin="round" stroke-linecap="round">
      <path d="M12 3l9 16H3L12 3z"/>
      <path d="M12 9v5"/>
    </g>
    <circle cx="12" cy="17" r="1" fill="currentColor"/>
  </symbol>

  <!-- error -->
  <symbol id="error" viewBox="0 0 24 24" role="img" aria-label="Error">
    <g fill="none" stroke="currentColor" stroke-width="2" stroke-linecap="round" stroke-linejoin="round">
      <circle cx="12" cy="12" r="9"/>
      <line x1="9" y1="9" x2="15" y2="15"/>
      <line x1="15" y1="9" x2="9" y2="15"/>
    </g>
  </symbol>

  <!-- refresh -->
  <symbol id="refresh" viewBox="0 0 24 24" role="img" aria-label="Refresh">
    <g fill="none" stroke="currentColor" stroke-width="2" stroke-linecap="round" stroke-linejoin="round">
      <path d="M20 7A8 8 0 0 0 4 12"/>
      <polyline points="20 3 20 7 16 7"/>
      <path d="M4 17A8 8 0 0 0 20 12"/>
      <polyline points="4 21 4 17 8 17"/>
    </g>
  </symbol>

</svg>
