<!-- Animica Product Icon: VM (Deterministic Python VM)
     Motif: microchip with code chevrons inside.
     Style: Monochrome, currentColor, 48×48 canvas -->
<svg width="48" height="48" viewBox="0 0 48 48" role="img" aria-labelledby="title" xmlns="http://www.w3.org/2000/svg">
  <title id="title">VM</title>
  <g fill="none" stroke="currentColor" stroke-width="2" stroke-linecap="round" stroke-linejoin="round">
    <!-- Chip body -->
    <rect x="10" y="10" width="28" height="20" rx="3"/>
    <!-- Pins (left) -->
    <line x1="10" y1="14" x2="8"  y2="14"/>
    <line x1="10" y1="18" x2="8"  y2="18"/>
    <line x1="10" y1="22" x2="8"  y2="22"/>
    <line x1="10" y1="26" x2="8"  y2="26"/>
    <!-- Pins (right) -->
    <line x1="38" y1="14" x2="40" y2="14"/>
    <line x1="38" y1="18" x2="40" y2="18"/>
    <line x1="38" y1="22" x2="40" y2="22"/>
    <line x1="38" y1="26" x2="40" y2="26"/>
    <!-- Pins (top) -->
    <line x1="16" y1="10" x2="16" y2="8"/>
    <line x1="24" y1="10" x2="24" y2="8"/>
    <line x1="32" y1="10" x2="32" y2="8"/>
    <!-- Pins (bottom) -->
    <line x1="16" y1="30" x2="16" y2="32"/>
    <line x1="24" y1="30" x2="24" y2="32"/>
    <line x1="32" y1="30" x2="32" y2="32"/>

    <!-- Code chevrons inside chip -->
    <polyline points="22,18 18,22 22,26"/>
    <polyline points="26,18 30,22 26,26"/>
    <line x1="24" y1="18" x2="24" y2="26"/>
  </g>
</svg>
